Coordinates
version=1
nRows=27
nColumns=19
inDegrees=yes

Units are S.I. units (second, meters, Newtons, ...)
If the header above contains a line with 'inDegrees', this indicates whether rotational values are in degrees (yes) or radians (no).

endheader
time	pelvis_tilt	pelvis_list	pelvis_rotation	pelvis_tx	pelvis_ty	pelvis_tz	hip_flexion_r	hip_adduction_r	hip_rotation_r	knee_angle_r	knee_angle_r_beta	ankle_angle_r	hip_flexion_l	hip_adduction_l	hip_rotation_l	knee_angle_l	knee_angle_l_beta	ankle_angle_l
     13.52666667	     -3.08865424	      8.29112638	      8.06039580	      2.10879650	      0.97220683	      0.98891700	    -23.79908265	    -15.45470910	    -33.36834819	     56.96428694	      0.99421436	    -16.25318944	     28.65107701	      9.81272278	    -18.08068558	     20.07589900	      0.35039054	     -9.51273032
     13.53333333	     -2.56077536	      9.09811555	      8.32899753	      2.10895616	      0.96881425	      0.98676560	    -23.37915467	    -17.00579723	    -33.05043770	     61.33373654	      1.07047565	    -15.53668493	     27.42138994	     10.62676317	    -19.00652526	     21.46652991	      0.37466163	     -8.18037614
     13.54000000	     -2.09573987	      9.88419282	      8.63256267	      2.10873563	      0.96502388	      0.98487493	    -22.68652294	    -18.45873596	    -32.50353838	     65.74344216	      1.14743953	    -14.68655457	     26.25398176	     11.43443075	    -19.53931661	     23.08248742	      0.40286541	     -6.38223356
     13.54666667	     -1.62304179	     10.58817598	      9.04256227	      2.10810670	      0.96115954	      0.98302778	    -21.80482508	    -19.67275090	    -31.74865398	     70.09306474	      1.22335476	    -13.74022331	     25.01998514	     12.27222811	    -19.43500417	     24.72851637	      0.43159403	     -4.03205083
     13.55333333	     -1.38640482	     11.38368999	      9.31448555	      2.10710550	      0.95661888	      0.98171977	    -20.41826655	    -21.07479935	    -30.72548573	     74.56851212	      1.30146605	    -12.60627350	     24.18596673	     13.02935385	    -19.62828321	     26.77123393	      0.46724618	     -1.58085796
     13.56000000	     -1.65260234	     11.91881485	      9.48755470	      2.10561877	      0.95170516	      0.98063823	    -17.97154265	    -22.18022959	    -28.97300436	     79.07836454	      1.38017783	    -11.48145657	     23.94520158	     13.57283890	    -19.59262202	     28.81638762	      0.50294084	      0.99005501
     13.56666667	     -1.76269064	     12.41767669	      9.84189585	      2.10370455	      0.94700660	      0.97965501	    -15.62028401	    -23.06768196	    -27.34232171	     83.39120724	      1.45545113	    -10.27661328	     23.56541552	     14.13645671	    -19.12777988	     30.95882120	      0.54033336	      3.84928874
     13.57333333	     -1.98129006	     12.87950333	     10.16276626	      2.10144786	      0.94242211	      0.97891449	    -12.90351026	    -23.85912684	    -25.48695392	     87.57381987	      1.52845150	     -9.08579123	     23.31762206	     14.66331356	    -18.55141313	     33.06766493	      0.57713963	      6.70075553
     13.58000000	     -1.79252284	     13.44791934	     10.54140773	      2.09898175	      0.93855952	      0.97835467	    -10.65778554	    -24.63910980	    -23.86453400	     91.44070274	      1.59594133	     -7.86626234	     22.56821215	     15.27952397	    -17.73433522	     35.08343964	      0.61232153	      9.52999906
     13.58666667	     -2.63514448	     13.53150553	     10.65648867	      2.09614899	      0.93403519	      0.97814408	     -6.49013849	    -24.93088226	    -21.15284022	     95.33183565	      1.66385441	     -6.89220952	     23.08397022	     15.39468470	    -17.18427283	     37.09732198	      0.64747041	     12.04263562
     13.59333333	     -3.01177778	     13.71341672	     10.73997267	      2.09324376	      0.93044894	      0.97816958	     -2.84878118	    -25.17795518	    -18.65520726	     98.82727368	      1.72486132	     -5.92656942	     22.98482060	     15.54800129	    -16.51634072	     38.90635363	      0.67904397	     14.37947992
     13.60000000	     -3.37649450	     13.83454865	     10.64333126	      2.09031209	      0.92737635	      0.97851395	      1.01188329	    -25.24836700	    -15.94265514	    102.00568321	      1.78033503	     -5.09703296	     22.79333409	     15.57869428	    -15.92247914	     40.47410444	      0.70640638	     16.44179401
     13.60666667	     -3.70674615	     13.83666066	     10.35151219	      2.08737936	      0.92489884	      0.97916206	      5.05596505	    -25.03476351	    -13.05061267	    104.81990566	      1.82945248	     -4.42771866	     22.47352502	     15.41949082	    -15.42216564	     41.78073376	      0.72921137	     18.23017669
     13.61333333	     -3.95062509	     13.73315186	      9.85940555	      2.08453970	      0.92304882	      0.98014954	      9.15185829	    -24.50413901	    -10.06171569	    107.23146409	      1.87154211	     -3.89671474	     21.94859266	     15.06565374	    -15.05587895	     42.82148927	      0.74737598	     19.70841173
     13.62000000	     -4.14680157	     13.51298468	      9.13959763	      2.08176939	      0.92180552	      0.98145918	     13.31258672	    -23.64050907	     -7.02093147	    109.22555818	      1.90634562	     -3.50379312	     21.23637769	     14.53023638	    -14.84600928	     43.54141308	      0.75994102	     20.93186146
     13.62666667	     -4.16064489	     13.17004529	      8.21822787	      2.07913614	      0.92128555	      0.98303113	     17.26372416	    -22.40739979	     -4.08093947	    110.75510739	      1.93304129	     -3.21247175	     20.18131076	     13.79531868	    -14.80899611	     43.97006974	      0.76742249	     21.95392605
     13.63333333	     -4.28767524	     12.68467073	      7.18558072	      2.07663414	      0.92120052	      0.98473445	     21.27255935	    -20.83569407	     -1.30549034	    111.83956568	      1.95196866	     -3.02627526	     19.08492888	     12.94170786	    -14.86456509	     44.07191213	      0.76919997	     22.72901298
     13.64000000	     -4.51056709	     12.07265509	      6.08850732	      2.07422213	      0.92144643	      0.98645333	     25.23503719	    -18.98967368	      1.19178713	    112.48321934	      1.96320253	     -2.89391084	     17.95361530	     11.98828497	    -15.02580096	     43.92248759	      0.76659202	     23.29448945
     13.64666667	     -4.31543867	     11.31838881	      4.80574021	      2.07211213	      0.92278122	      0.98834181	     28.46755215	    -16.83754171	      3.29063081	    112.57383706	      1.96478411	     -2.73336278	     16.17734309	     10.85397409	    -15.37916044	     43.44152912	      0.75819772	     23.67653583
     13.65333333	     -4.36400059	     10.48960632	      3.51907846	      2.07012438	      0.92421651	      0.99008447	     31.73741554	    -14.55852432	      5.10134989	    112.26553324	      1.95940319	     -2.55778305	     14.53049428	      9.74289211	    -15.81681065	     42.72891101	      0.74576018	     23.81849998
     13.66000000	     -4.39949248	      9.51886575	      2.27720129	      2.06833430	      0.92619197	      0.99163768	     34.66444466	    -12.18608152	      6.41929154	    111.47972180	      1.94568819	     -2.31393895	     12.72489961	      8.57397026	    -16.25931834	     41.78180689	      0.72923010	     23.72022563
     13.66666667	     -4.52274037	      8.49278829	      1.09523696	      2.06681233	      0.92850598	      0.99295844	     37.37672243	     -9.85838375	      7.34190167	    110.26608205	      1.92450619	     -1.99293912	     10.88289324	      7.44295964	    -16.73226622	     40.62120901	      0.70897384	     23.32318436
     13.67333333	     -4.75458494	      7.40479034	     -0.02465493	      2.06562646	      0.93111510	      0.99402567	     39.89831257	     -7.60214633	      7.89163264	    108.64546367	      1.89622106	     -1.57000769	      9.03648158	      6.34011686	    -17.21263290	     39.24868920	      0.68501885	     22.58891502
     13.68000000	     -5.06430574	      6.31660738	     -1.03116765	      2.06478260	      0.93405424	      0.99480513	     42.19491920	     -5.56402130	      8.06498431	    106.61904286	      1.86085334	     -1.04894413	      7.17696586	      5.32565115	    -17.66412090	     37.69068772	      0.65782660	     21.50374460
     13.68666667	     -5.80485620	      5.36134498	     -1.52423681	      2.06448214	      0.93680914	      0.99469266	     44.64063886	     -4.26943647	      7.62827895	    104.26867649	      1.81983171	     -0.32791740	      5.70308976	      4.61305021	    -17.57737484	     35.94865471	      0.62742239	     20.21150666
     13.69333333	     -5.81980572	      4.14792272	     -2.78468258	      2.06444017	      0.94082145	      0.99560110	     46.06314052	     -2.19008435	      7.46047072	    101.48103986	      1.77117827	      0.20639272	      3.35245851	      3.51789941	    -18.52542589	     34.04088621	      0.59412554	     18.14130298
     13.70000000	     -6.20649418	      3.12925626	     -3.42234815	      2.06501160	      0.94469298	      0.99547882	     47.57809688	     -1.06931883	      6.64402344	     98.40798396	      1.71754333	      0.82949863	      1.36631368	      2.78005072	    -18.81913651	     31.96149158	      0.55783326	     15.69691112
